<?xml version="1.0" encoding="utf-8"?>
<!-- Generator: Adobe Illustrator 19.1.0, SVG Export Plug-In . SVG Version: 6.00 Build 0)  -->
<svg version="1.1" id="Layer_1" xmlns="http://www.w3.org/2000/svg" xmlns:xlink="http://www.w3.org/1999/xlink" x="0px" y="0px"
	 viewBox="0 0 550 630" style="enable-background:new 0 0 550 630;" xml:space="preserve">
<style type="text/css">
	.st0{display:none;fill:#27783C;}
	.st1{fill:#1FC0D9;}
	.st2{fill:#FFFFFF;}
</style>
<g>
	<rect x="-72.6" y="-62.5" class="st0" width="808" height="848"/>
	<path class="st1" d="M521.4,271L521.4,271v-172c0,0,7-63.9-84-75.1v0c0,0-0.2,0-0.2,0c-0.5-0.1-0.9-0.1-1.4-0.2
		c-161.5-18.4-315.4-1.5-315.4-1.5v0.5c-105,6.5-98,76.2-98,76.2v173.5l0,0v172c0,0-4,63.9,84,75.1v0c0,0,0.5,0,0.5,0
		c0.5,0.1,1.2,0.1,1.7,0.2c1.6,0.2,2.8,0.3,4.8,0.5v99.1l100.3-91.9c117.2,4.1,209.7-6.2,209.7-6.2v-0.5c105-6.5,98-76.2,98-76.2
		V271z"/>
	<g>
		<g>
			<g>
				<path class="st2" d="M455.5,91c0,16.8,0,33.6,0,50.4c4.8,0,9.4,0,14.2,0c0-16.9,0-33.7,0-50.4c0-4.8,0-9.4,0-14.2
					c-4.7,0-9.4,0-14.2,0c-16.9,0-33.7,0-50.4,0c0,4.8,0,9.5,0,14.2C421.9,91,438.7,91,455.5,91z"/>
			</g>
			<g>
				<path class="st2" d="M89.1,452.4c0-16.8,0-33.6,0-50.4c-4.8,0-9.4,0-14.2,0c0,16.9,0,33.7,0,50.4c0,4.8,0,9.4,0,14.2
					c4.7,0,9.4,0,14.2,0c16.9,0,33.7,0,50.4,0c0-4.8,0-9.5,0-14.2C122.6,452.4,105.9,452.4,89.1,452.4z"/>
			</g>
		</g>
		<g>
			<g>
				<g>
					<g>
						<path class="st2" d="M233.5,218.6h-22.2l-6.8-16.4h-37l-6.2,16.4h-21.8l33.3-82.7h23.9L233.5,218.6z M185.1,155.6L173,187.8
							h25.5L185.1,155.6z"/>
						<path class="st2" d="M274,135.9c17,0,27,11.4,27,23.8c0,9.1-4.7,15.9-14.2,20.3c8.5,4.2,11,14.4,22.7,38.7h-22.7
							c-8.9-17.7-12.1-33.6-23.3-33.6h-5.9v33.6H237v-82.7H274z M257.6,169.8h10.9c5.7,0,11.3-2.4,11.3-9.5c0-6.2-4-9.3-11.8-9.3
							h-10.4V169.8z"/>
						<path class="st2" d="M387.1,135.9h17.9v82.7h-20.6v-51.7l-22.3,26H359l-22.3-26v51.7h-20.6v-82.7H334l26.6,30.7L387.1,135.9z"
							/>
					</g>
					<g>
						<path class="st2" d="M190.3,281.3v39.6h-10.8v-30.3c0-6-0.8-10.3-2.4-12.6c-1.6-2.4-4.4-3.6-8.5-3.6c-2.3,0-4.3,0.5-6.2,1.5
							c-1.9,1-4,2.8-6.4,5.4v39.6h-10.8v-54.5h10.8v7.2c5.5-5.5,10.9-8.2,16.1-8.2c6.9,0,12.3,3.3,16,9.8c5.8-6.6,11.8-9.9,18.1-9.9
							c5.3,0,9.6,1.9,13.1,5.8c3.4,3.9,5.1,9.8,5.1,17.7v32.2h-10.8v-32.3c0-4.5-0.9-8-2.8-10.4c-1.9-2.4-4.5-3.6-8-3.6
							C198.3,274.5,194.2,276.8,190.3,281.3z"/>
						<path class="st2" d="M238.7,238.1h10.8v32.2c4.7-3.4,9.6-5.1,14.9-5.1c6.9,0,12.6,2.6,16.9,7.8c4.4,5.2,6.6,11.9,6.6,20.1
							c0,8.8-2.6,15.7-7.9,20.9c-5.2,5.2-12.2,7.8-21,7.8c-3.5,0-7.2-0.4-11.1-1.1c-3.9-0.7-7-1.7-9.3-2.8V238.1z M249.4,280.5V310
							c3.7,1.1,7.4,1.7,11.3,1.7c4.8,0,8.7-1.7,11.7-5.1c3-3.4,4.5-7.8,4.5-13.1c0-5.4-1.4-9.8-4.2-13.2c-2.8-3.4-6.5-5.1-11-5.1
							C257.7,275.2,253.6,277,249.4,280.5z"/>
						<path class="st2" d="M346.2,294.5h-38.3c0.3,5.2,2,9.4,5.2,12.4c3.2,3.1,7.4,4.6,12.5,4.6c7.1,0,13.7-2.2,19.7-6.6v10.5
							c-3.3,2.2-6.6,3.8-9.9,4.7c-3.3,0.9-7.1,1.4-11.5,1.4c-6,0-10.9-1.2-14.6-3.7c-3.7-2.5-6.7-5.8-8.9-10
							c-2.2-4.2-3.3-9.1-3.3-14.6c0-8.3,2.3-15,7-20.2c4.7-5.2,10.8-7.8,18.3-7.8c7.2,0,13,2.5,17.3,7.6c4.3,5.1,6.5,11.8,6.5,20.3
							V294.5z M308.1,288.1h27.4c-0.3-4.3-1.6-7.6-3.8-9.9c-2.3-2.3-5.4-3.5-9.2-3.5c-3.9,0-7,1.2-9.5,3.5
							C310.5,280.4,308.9,283.8,308.1,288.1z"/>
						<path class="st2" d="M394.2,238.1h10.8v82.7h-23c-8.1,0-14.5-2.5-19.3-7.6c-4.8-5.1-7.2-11.9-7.2-20.5c0-8,2.5-14.6,7.5-19.8
							c5-5.2,11.5-7.8,19.3-7.8c3.6,0,7.6,0.8,11.8,2.3V238.1z M394.2,311.6v-34.5c-3.4-1.7-6.8-2.5-10.2-2.5
							c-5.4,0-9.6,1.8-12.8,5.3c-3.2,3.5-4.8,8.3-4.8,14.2c0,5.6,1.4,9.9,4.1,13c1.7,1.8,3.4,3,5.3,3.7c1.9,0.6,5.2,0.9,10,0.9
							H394.2z"/>
					</g>
				</g>
			</g>
			<g>
				<path class="st2" d="M148.5,386.1v0.2c0.1,1.7,0.5,3.1,1.3,4.4s1.6,2.3,2.8,3.2c1.1,0.9,2.4,1.5,3.7,2c1.4,0.5,2.8,0.7,4.2,0.7
					c2.6,0,4.8-0.3,6.8-0.9c2-0.6,3.9-1.5,5.7-2.7v7.3c-1.7,1.2-3.7,2-6,2.6c-2.3,0.6-4.7,0.8-7.1,0.8c-2.9,0-5.6-0.4-7.9-1.3
					s-4.4-2.2-6.1-3.8c-1.7-1.6-3-3.6-4-6c-0.9-2.3-1.4-5-1.4-8c0-3,0.5-5.7,1.4-8.1c0.9-2.4,2.2-4.5,3.8-6.2c1.6-1.7,3.5-3,5.7-4
					c2.2-0.9,4.6-1.4,7.1-1.4c2.7,0,5,0.4,7,1.3c2,0.8,3.7,2,5,3.5c1.3,1.5,2.3,3.3,2.9,5.4c0.6,2.1,1,4.4,1,6.9v4.2H148.5z
					 M158.1,371.8c-2.4,0-4.4,0.8-6.1,2.3c-1.7,1.6-2.8,3.8-3.3,6.6h17.8c-0.1-2.9-0.9-5.1-2.3-6.7
					C162.8,372.6,160.8,371.8,158.1,371.8z"/>
				<path class="st2" d="M183.2,368c2.6-1,5.4-1.8,8.4-2.3c3-0.6,5.9-0.8,8.6-0.8c2.3,0,4.5,0.2,6.4,0.7c1.9,0.5,3.6,1.3,4.9,2.4
					c1.3,1.1,2.4,2.6,3.1,4.4c0.7,1.8,1.1,4,1.1,6.6v23.9h-8.2v-23.1c0-2.7-0.7-4.6-2.2-5.7c-1.5-1.1-3.4-1.6-5.7-1.6
					c-1.5,0-2.9,0.1-4.3,0.3c-1.4,0.2-2.7,0.5-3.8,0.8v29.4h-8.3V368z"/>
				<path class="st2" d="M245.4,377.9c0-2-0.7-3.5-2-4.5c-1.3-1-3-1.4-5.1-1.4c-2.1,0-4.1,0.3-5.8,0.8c-1.7,0.6-3.4,1.3-4.9,2.2
					v-7.1c1.6-0.9,3.5-1.7,5.5-2.2c2-0.5,4.2-0.8,6.6-0.8c2,0,3.9,0.2,5.6,0.7s3.2,1.2,4.4,2.2c1.2,1,2.2,2.3,2.9,3.9
					c0.7,1.6,1,3.6,1,5.9v24.6c-1.8,0.5-3.8,0.8-6.1,1.1c-2.3,0.3-4.5,0.4-6.6,0.4c-2.4,0-4.6-0.2-6.7-0.6c-2-0.4-3.8-1-5.3-1.9
					s-2.6-2.1-3.5-3.5c-0.8-1.4-1.3-3.2-1.3-5.3c0-3.8,1.5-6.6,4.5-8.5c3-1.8,7.2-2.8,12.7-2.8h4.1V377.9z M245.4,386.6h-3.5
					c-2.9,0-5.2,0.4-7,1.3c-1.7,0.9-2.6,2.2-2.6,4.2c0,2,0.8,3.3,2.4,4.2c1.6,0.8,3.6,1.2,6.2,1.2c0.6,0,1.3,0,2.1-0.1
					c0.8-0.1,1.6-0.2,2.4-0.3V386.6z"/>
				<path class="st2" d="M264.4,345.8h8.3v20.9c0.9-0.4,2.1-0.9,3.7-1.3c1.6-0.4,3.2-0.6,4.8-0.6c2.7,0,5.2,0.4,7.5,1.3
					c2.3,0.8,4.3,2.1,6,3.6s3,3.6,3.9,5.9c0.9,2.3,1.4,5,1.4,8c0,3-0.5,5.8-1.5,8.2c-1,2.5-2.4,4.6-4.2,6.3
					c-1.8,1.8-4.1,3.1-6.8,4.1c-2.7,1-5.8,1.4-9.2,1.4c-2.7,0-5.2-0.2-7.5-0.7c-2.3-0.5-4.4-1-6.3-1.7V345.8z M291.5,383.8
					c0-1.8-0.3-3.4-0.9-4.8c-0.6-1.4-1.4-2.6-2.4-3.6c-1-1-2.3-1.7-3.6-2.3c-1.4-0.5-2.9-0.8-4.4-0.8c-1.6,0-3.1,0.2-4.3,0.5
					c-1.3,0.4-2.3,0.8-3.1,1.2v21.7c0.8,0.3,1.7,0.5,2.7,0.6c1,0.1,2,0.2,3.1,0.2c3.8,0,6.9-1,9.4-3.1
					C290.3,391.3,291.5,388.1,291.5,383.8z"/>
				<path class="st2" d="M316.9,402.8h-8.3v-57h8.3V402.8z"/>
				<path class="st2" d="M333.5,386.1v0.2c0.1,1.7,0.5,3.1,1.3,4.4c0.7,1.3,1.6,2.3,2.8,3.2c1.1,0.9,2.4,1.5,3.7,2
					c1.4,0.5,2.8,0.7,4.2,0.7c2.6,0,4.8-0.3,6.8-0.9c2-0.6,3.9-1.5,5.7-2.7v7.3c-1.7,1.2-3.7,2-6,2.6c-2.3,0.6-4.7,0.8-7.1,0.8
					c-2.9,0-5.6-0.4-7.9-1.3s-4.4-2.2-6.1-3.8c-1.7-1.6-3-3.6-4-6c-0.9-2.3-1.4-5-1.4-8c0-3,0.5-5.7,1.4-8.1s2.2-4.5,3.8-6.2
					c1.6-1.7,3.5-3,5.7-4c2.2-0.9,4.6-1.4,7.1-1.4c2.7,0,5,0.4,7,1.3c2,0.8,3.7,2,5,3.5c1.3,1.5,2.3,3.3,2.9,5.4
					c0.6,2.1,1,4.4,1,6.9v4.2H333.5z M343.2,371.8c-2.4,0-4.4,0.8-6.1,2.3c-1.7,1.6-2.8,3.8-3.3,6.6h17.8c-0.1-2.9-0.9-5.1-2.3-6.7
					C347.9,372.6,345.9,371.8,343.2,371.8z"/>
				<path class="st2" d="M401.4,402.1c-2.1,0.6-4.4,1-6.8,1.2c-2.4,0.2-4.8,0.4-7.2,0.4c-3.2,0-6.2-0.4-8.8-1.3
					c-2.6-0.8-4.9-2.1-6.7-3.7c-1.9-1.6-3.3-3.7-4.4-6.1s-1.6-5.2-1.6-8.3c0-3,0.5-5.7,1.5-8.1c1-2.4,2.4-4.4,4.2-6.1
					c1.8-1.7,3.9-3,6.3-3.9c2.4-0.9,5.1-1.3,7.9-1.3c1.3,0,2.7,0.1,4,0.4c1.3,0.3,2.5,0.6,3.4,1v-20.5h8.2V402.1z M393.2,373.6
					c-1.7-0.9-4-1.4-6.9-1.4c-3.5,0-6.4,1-8.6,3.1c-2.2,2.1-3.4,5-3.4,8.9c0,4,1.2,7.1,3.6,9.2c2.4,2.1,5.6,3.2,9.6,3.2
					c0.8,0,1.7,0,2.7-0.1c1-0.1,1.9-0.1,2.9-0.3V373.6z"/>
			</g>
		</g>
	</g>
</g>
</svg>